<svg height="512" viewBox="0 0 512 512" width="512" xmlns="http://www.w3.org/2000/svg"><g id="filled_outline" data-name="filled outline"><rect fill="#007af6" height="144" rx="14" width="464" x="24" y="288"/><circle cx="104" cy="360" fill="#005dbb" r="48"/><circle cx="104" cy="360" fill="#92d1f7" r="16"/><circle cx="408" cy="360" fill="#005dbb" r="48"/><circle cx="408" cy="360" fill="#92d1f7" r="16"/><g fill="#005dbb"><circle cx="256" cy="360" r="8"/><circle cx="256" cy="336" r="8"/><circle cx="288" cy="360" r="8"/><circle cx="224" cy="360" r="8"/><circle cx="256" cy="384" r="8"/><circle cx="224" cy="384" r="8"/><circle cx="224" cy="336" r="8"/><circle cx="192" cy="360" r="8"/><circle cx="192" cy="384" r="8"/><circle cx="192" cy="336" r="8"/><circle cx="320" cy="360" r="8"/><circle cx="320" cy="384" r="8"/><circle cx="320" cy="336" r="8"/><circle cx="288" cy="336" r="8"/><circle cx="288" cy="384" r="8"/></g><path d="m212 80h88a20 20 0 0 1 20 20v188a0 0 0 0 1 0 0h-128a0 0 0 0 1 0 0v-188a20 20 0 0 1 20-20z" fill="#92d1f7"/><path d="m212 80h80a20 20 0 0 1 20 20v188a0 0 0 0 1 0 0h-120a0 0 0 0 1 0 0v-188a20 20 0 0 1 20-20z" fill="#a6deff"/><path d="m297.171 145.9a8.013 8.013 0 0 0 -6.486-1.788l-48 8a8 8 0 0 0 -6.685 7.888v32h-4a20 20 0 1 0 20 20v-45.223l32-5.334v14.557h-4a20 20 0 1 0 20 20v-44a8 8 0 0 0 -2.829-6.1z" fill="#02a437"/><path d="m256 120h-24a8 8 0 0 1 0-16h24a8 8 0 0 1 0 16z" fill="#92d1f7"/><path d="m288 120h-8a8 8 0 0 1 0-16h8a8 8 0 0 1 0 16z" fill="#92d1f7"/><path d="m398.354 264a8 8 0 0 1 -3.805-15.042 80.028 80.028 0 0 0 0-140.908 8 8 0 0 1 7.6-14.08 96.026 96.026 0 0 1 0 169.068 7.96 7.96 0 0 1 -3.795.962z" fill="#fbb540"/><path d="m383.18 235.82a8 8 0 0 1 -3.806-15.042 48.014 48.014 0 0 0 0-84.545 8 8 0 0 1 7.6-14.08 64.013 64.013 0 0 1 0 112.705 7.952 7.952 0 0 1 -3.794.962z" fill="#fbb540"/><path d="m368.007 207.642a8 8 0 0 1 -3.807-15.042 16.005 16.005 0 0 0 0-28.186 8 8 0 0 1 7.6-14.082 32.007 32.007 0 0 1 0 56.35 7.976 7.976 0 0 1 -3.793.96z" fill="#fbb540"/><path d="m113.646 264a7.96 7.96 0 0 1 -3.792-.962 96.026 96.026 0 0 1 0-169.068 8 8 0 0 1 7.6 14.08 80.028 80.028 0 0 0 0 140.908 8 8 0 0 1 -3.8 15.042z" fill="#fbb540"/><path d="m128.82 235.82a7.952 7.952 0 0 1 -3.792-.962 64.013 64.013 0 0 1 0-112.7 8 8 0 0 1 7.6 14.08 48.014 48.014 0 0 0 0 84.545 8 8 0 0 1 -3.806 15.042z" fill="#fbb540"/><path d="m143.993 207.642a7.963 7.963 0 0 1 -3.792-.962 32.006 32.006 0 0 1 0-56.349 8 8 0 0 1 7.6 14.082 16.006 16.006 0 0 0 0 28.187 8 8 0 0 1 -3.806 15.042z" fill="#fbb540"/><path d="m474 280h-146v-180a28.032 28.032 0 0 0 -28-28h-88a28.032 28.032 0 0 0 -28 28v180h-146a22.025 22.025 0 0 0 -22 22v116a22.025 22.025 0 0 0 22 22h436a22.025 22.025 0 0 0 22-22v-116a22.025 22.025 0 0 0 -22-22zm-274-180a12.013 12.013 0 0 1 12-12h88a12.013 12.013 0 0 1 12 12v180h-112zm280 318a6.006 6.006 0 0 1 -6 6h-436a6.006 6.006 0 0 1 -6-6v-116a6.006 6.006 0 0 1 6-6h436a6.006 6.006 0 0 1 6 6z"/><path d="m104 304a56 56 0 1 0 56 56 56.063 56.063 0 0 0 -56-56zm0 96a40 40 0 1 1 40-40 40.045 40.045 0 0 1 -40 40z"/><path d="m104 336a24 24 0 1 0 24 24 24.028 24.028 0 0 0 -24-24zm0 32a8 8 0 1 1 8-8 8.009 8.009 0 0 1 -8 8z"/><path d="m408 304a56 56 0 1 0 56 56 56.063 56.063 0 0 0 -56-56zm0 96a40 40 0 1 1 40-40 40.045 40.045 0 0 1 -40 40z"/><path d="m408 336a24 24 0 1 0 24 24 24.028 24.028 0 0 0 -24-24zm0 32a8 8 0 1 1 8-8 8.009 8.009 0 0 1 -8 8z"/><circle cx="256" cy="360" r="8"/><circle cx="256" cy="336" r="8"/><circle cx="288" cy="360" r="8"/><circle cx="224" cy="360" r="8"/><circle cx="256" cy="384" r="8"/><circle cx="224" cy="384" r="8"/><circle cx="224" cy="336" r="8"/><circle cx="192" cy="360" r="8"/><circle cx="192" cy="384" r="8"/><circle cx="192" cy="336" r="8"/><circle cx="320" cy="360" r="8"/><circle cx="320" cy="384" r="8"/><circle cx="320" cy="336" r="8"/><circle cx="288" cy="336" r="8"/><circle cx="288" cy="384" r="8"/><path d="m297.171 145.9a8.013 8.013 0 0 0 -6.486-1.788l-48 8a8 8 0 0 0 -6.685 7.888v32h-4a20 20 0 1 0 20 20v-45.223l32-5.334v14.557h-4a20 20 0 1 0 20 20v-44a8 8 0 0 0 -2.829-6.1zm-61.171 66.1a4 4 0 1 1 -4-4h4zm48-16a4 4 0 1 1 -4-4h4z"/><path d="m232 120h24a8 8 0 0 0 0-16h-24a8 8 0 0 0 0 16z"/><path d="m280 120h8a8 8 0 0 0 0-16h-8a8 8 0 0 0 0 16z"/><path d="m398.354 264a7.96 7.96 0 0 0 3.792-.962 96.026 96.026 0 0 0 0-169.068 8 8 0 0 0 -7.6 14.08 80.028 80.028 0 0 1 0 140.908 8 8 0 0 0 3.808 15.042z"/><path d="m383.18 235.82a7.952 7.952 0 0 0 3.792-.962 64.013 64.013 0 0 0 0-112.7 8 8 0 0 0 -7.6 14.08 48.014 48.014 0 0 1 0 84.545 8 8 0 0 0 3.806 15.042z"/><path d="m364.2 192.6a8 8 0 1 0 7.6 14.082 32.007 32.007 0 0 0 0-56.35 8 8 0 0 0 -7.6 14.082 16.005 16.005 0 0 1 0 28.186z"/><path d="m59.38 178.506a95.959 95.959 0 0 0 50.474 84.534 8 8 0 0 0 7.6-14.08 80.028 80.028 0 0 1 0-140.908 8 8 0 0 0 -7.6-14.08 95.959 95.959 0 0 0 -50.474 84.534z"/><path d="m132.626 136.233a8 8 0 0 0 -7.6-14.08 64.013 64.013 0 0 0 0 112.705 8 8 0 0 0 7.6-14.08 48.014 48.014 0 0 1 0-84.545z"/><path d="m147.8 164.413a8 8 0 0 0 -7.6-14.082 32.006 32.006 0 0 0 0 56.349 8 8 0 0 0 7.6-14.08 16.006 16.006 0 0 1 0-28.187z"/></g></svg>