<svg height="512" viewBox="0 0 512 512" width="512" xmlns="http://www.w3.org/2000/svg"><g id="BULINE"><circle cx="256" cy="256" fill="#6fc2e5" r="256"/></g><g id="Icons"><path d="m111 325.13v102.5c0 17.37 64.92 31.37 145 31.37s145-14 145-31.36v-102.51z" fill="#934cf5"/><path d="m292.5 458.56c-11.66.66-23.89 1-36.5 1-80.08 0-145-14-145-31.35v-102.49h73v102.5c0 14.59 46.09 26.85 108.5 30.34z" fill="#8147dd"/><circle cx="378.24" cy="397.26" fill="#9e7fea" r="11.63"/><circle cx="378.24" cy="373.04" fill="#9e7fea" r="8.24"/><ellipse cx="256" cy="325.13" fill="#9269e2" rx="145" ry="31.35"/><ellipse cx="256" cy="323.29" fill="#9e7fea" rx="122.24" ry="22.93"/><path d="m216.61 345.58c19.2 5.07 45.59 8.81 75.8 10.49-11.64.65-23.84 1-36.41 1-80.08 0-145-14-145-31.35s64.92-31.35 145-31.35c12.57 0 24.77.35 36.41 1a477.23 477.23 0 0 0 -53.8 5.81c-33.39 5.73-54.8 14.59-54.8 24.54 0 7.54 12.3 14.46 32.8 19.86z" fill="#8162cc"/><path d="m216.61 345.58c-48.18-3.07-82.85-11.62-82.85-21.7 0-11.55 45.58-21.12 104.85-22.7-33.39 5.73-54.8 14.59-54.8 24.54 0 7.54 12.3 14.46 32.8 19.86z" fill="#8c75d3"/><g fill="#b0d46c"><circle cx="133.76" cy="382.88" r="9.76"/><circle cx="166" cy="388.72" r="9.76"/><circle cx="203" cy="390.05" r="9.76"/></g><path d="m111 204.8v102.5c0 17.32 64.92 31.35 145 31.35s145-14 145-31.35v-102.5z" fill="#934cf5"/><path d="m292.5 338.22c-11.66.66-23.89 1-36.5 1-80.08 0-145-14-145-31.35v-102.49h73v102.5c0 14.59 46.09 26.85 108.5 30.34z" fill="#8147dd"/><circle cx="378.24" cy="276.93" fill="#9e7fea" r="11.63"/><circle cx="378.24" cy="252.71" fill="#9e7fea" r="8.24"/><ellipse cx="256" cy="204.8" fill="#9269e2" rx="145" ry="31.35"/><ellipse cx="256" cy="202.96" fill="#9e7fea" rx="122.24" ry="22.93"/><path d="m216.61 225.24c19.2 5.07 45.59 8.81 75.8 10.49-11.64.65-23.84 1-36.41 1-80.08 0-145-14-145-31.35s64.92-31.38 145-31.38c12.57 0 24.77.35 36.41 1a477.23 477.23 0 0 0 -53.8 5.81c-33.39 5.73-54.8 14.59-54.8 24.54 0 7.57 12.3 14.49 32.8 19.89z" fill="#8162cc"/><path d="m216.61 225.24c-48.18-3.07-82.85-11.62-82.85-21.7 0-11.55 45.58-21.12 104.85-22.7-33.39 5.73-54.8 14.59-54.8 24.54 0 7.54 12.3 14.46 32.8 19.86z" fill="#8c75d3"/><circle cx="133.76" cy="262.55" fill="#b0d46c" r="9.76"/><circle cx="166" cy="268.38" fill="#b0d46c" r="9.76"/><circle cx="203" cy="269.72" fill="#b0d46c" r="9.76"/><path d="m111 82.42v102.5c0 17.32 64.92 31.36 145 31.36s145-14 145-31.36v-102.5z" fill="#934cf5"/><path d="m292.5 215.84c-11.66.66-23.89 1-36.5 1-80.08 0-145-14-145-31.35v-102.49h73v102.5c0 14.59 46.09 26.85 108.5 30.34z" fill="#8147dd"/><circle cx="378.24" cy="154.55" fill="#9e7fea" r="11.63"/><circle cx="378.24" cy="130.33" fill="#9e7fea" r="8.24"/><ellipse cx="256" cy="82.42" fill="#9269e2" rx="145" ry="31.35"/><ellipse cx="256" cy="80.58" fill="#9e7fea" rx="122.24" ry="22.93"/><path d="m216.61 102.86c19.2 5.07 45.59 8.81 75.8 10.49-11.64.65-23.84 1-36.41 1-80.08 0-145-14-145-31.35s64.92-31.35 145-31.35c12.57 0 24.77.35 36.41 1a477.23 477.23 0 0 0 -53.8 5.81c-33.39 5.73-54.8 14.59-54.8 24.54 0 7.54 12.3 14.46 32.8 19.86z" fill="#8162cc"/><path d="m216.61 102.86c-48.18-3.07-82.85-11.62-82.85-21.7 0-11.55 45.58-21.12 104.85-22.7-33.39 5.73-54.8 14.59-54.8 24.54 0 7.54 12.3 14.46 32.8 19.86z" fill="#8c75d3"/><circle cx="133.76" cy="140.17" fill="#b0d46c" r="9.76"/><circle cx="166" cy="146.01" fill="#b0d46c" r="9.76"/><circle cx="203" cy="147.34" fill="#b0d46c" r="9.76"/></g></svg>