<svg id="Layer_1" enable-background="new 0 0 512 512" height="512" viewBox="0 0 512 512" width="512" xmlns="http://www.w3.org/2000/svg"><g><g><path d="m9.055 283.955c-1.027-9.177-1.555-18.504-1.555-27.955 0-101.901 61.335-189.476 149.1-227.823l206.4 227.823z" fill="#c4e14d"/><path d="m502.963 283.792c1.015-9.124 1.537-18.397 1.537-27.792 0-101.902-61.336-189.478-149.102-227.824l-99.398 227.824z" fill="#e9a6c5"/><path d="m355.398 28.176-4.054 9.293c77.516 42.06 130.156 124.138 130.156 218.531 0 8.519-.444 16.934-1.281 25.233l22.744 2.56c1.015-9.124 1.537-18.397 1.537-27.792 0-101.903-61.336-189.479-149.102-227.825z" fill="#e07fa6"/><path d="m108.433 455.96c41.266 30.505 92.311 48.54 147.567 48.54 55.255 0 106.299-18.034 147.565-48.538l-147.565-199.962z" fill="#8ec6f6"/><path d="m403.565 455.962-8.544-11.577c-40.797 35.118-93.113 57.225-150.521 59.841l.001.004c3.812.174 7.644.271 11.499.271 55.255-.001 106.299-18.035 147.565-48.539z" fill="#6a91cb"/><circle cx="256" cy="256" fill="#b9e4ef" r="193.165"/><path d="m294.521 173.28h-77.042c-5.716 0-10.998 3.05-13.856 8l-38.521 66.72c-2.858 4.95-2.858 11.05 0 16l38.521 66.72c2.858 4.95 8.14 8 13.856 8h77.042c5.716 0 10.998-3.05 13.856-8l38.521-66.72c2.858-4.95 2.858-11.05 0-16l-38.521-66.72c-2.858-4.951-8.14-8-13.856-8z" fill="#365e7d"/><g fill="#f4d844"><path d="m496.599 318.332c2.899-11.224 5.034-22.756 6.345-34.536l-53.773-31.046-78.916 52.105c-8.703 5.746-14.193 15.255-14.818 25.665l-5.666 94.396 53.772 31.045c9.396-6.945 18.285-14.535 26.601-22.707z"/><path d="m322.263 16.446c11.394 3.148 22.461 7.087 33.137 11.752v62.136l-84.582 42.291c-9.328 4.664-20.307 4.664-29.635 0l-84.583-42.292v-62.135c10.676-4.665 21.742-8.604 33.137-11.752z"/><path d="m81.678 433.081c8.367 8.238 17.316 15.887 26.778 22.881l53.772-31.045-5.666-94.396c-.625-10.41-6.115-19.919-14.818-25.665l-78.916-52.106-53.772 31.046c1.311 11.777 3.445 23.306 6.343 34.528z"/></g><path d="m127.621 401.35-3.884-64.711c-.156-2.602-1.529-4.98-3.704-6.416l-54.103-35.721c-2.616-1.728-5.984-1.83-8.7-.264l-41.828 24.094.206.709c11.492 43.946 34.705 83.141 66.111 114.053l.331-.192 41.444-23.882c2.717-1.568 4.315-4.538 4.127-7.67z" fill="#365e7d"/><path d="m256 7.5c-22.953 0-45.169 3.137-66.267 8.967v48.91c0 2.745 1.551 5.255 4.007 6.483l58.556 29.278c2.332 1.166 5.077 1.166 7.409 0l58.556-29.278c2.456-1.228 4.007-3.738 4.007-6.483v-48.91c-21.099-5.83-43.315-8.967-66.268-8.967z" fill="#365e7d"/><path d="m322.191 16.446h-23.054c19.857 5.474 38.729 13.327 56.264 23.271v-11.519c-10.697-4.674-21.793-8.601-33.21-11.752z" fill="#edbd2d"/><path d="m322.267 16.467c-21.099-5.83-43.314-8.967-66.267-8.967-3.856 0-7.687.101-11.5.274 27.307 1.244 53.455 6.912 77.767 16.28z" fill="#2b4d66"/><path d="m496.606 318.304c2.896-11.215 5.028-22.738 6.338-34.508l-21.917-12.654c-4.292 71.371-38.697 134.613-90.693 177.193l13.21 7.626c9.402-6.949 18.297-14.545 26.618-22.723z" fill="#edbd2d"/><g><path d="m496.606 318.347-41.835-24.109c-2.716-1.566-6.084-1.463-8.7.264l-54.103 35.722c-2.176 1.437-3.548 3.814-3.704 6.416l-3.884 64.711c-.188 3.132 1.41 6.101 4.127 7.67l41.444 23.882.188.332c31.475-30.93 54.775-70.156 66.286-114.164z" fill="#365e7d"/><path d="m476.295 306.643c-9.309 44.958-30.757 85.462-60.776 117.943l14.431 8.316.188.332c31.475-30.93 54.775-70.156 66.286-114.164l.182-.723z" fill="#2b4d66"/></g></g><g><path d="m437.02 74.98c-48.352-48.351-112.64-74.98-181.02-74.98s-132.668 26.629-181.02 74.98c-48.351 48.352-74.98 112.64-74.98 181.02s26.629 132.668 74.98 181.02c48.352 48.351 112.64 74.98 181.02 74.98s132.668-26.629 181.02-74.98c48.351-48.352 74.98-112.64 74.98-181.02s-26.629-132.668-74.98-181.02zm-8.08 348.684-36.683-21.138c-.26-.15-.409-.428-.392-.726l3.885-64.713c.015-.243.146-.469.351-.604l54.103-35.722c.248-.165.564-.174.822-.025l36.803 21.211c-11.041 38.755-31.57 73.546-58.889 101.717zm29.576-135.924c-5.21-3.002-11.563-2.809-16.578.504l-54.103 35.722c-4.125 2.724-6.764 7.295-7.058 12.226l-3.885 64.712c-.359 6.005 2.653 11.604 7.869 14.617l32.971 18.999c-4.776 4.331-9.733 8.463-14.845 12.404l-45.352-26.184 5.388-89.769c.482-8.011 4.767-15.434 11.464-19.855l75.049-49.551 45.461 26.247c-.85 6.414-1.958 12.747-3.304 18.994zm-110.565 42.331-5.417 90.245c-26.521 13.984-56.342 21.375-86.534 21.375s-60.014-7.391-86.534-21.375l-5.417-90.246c-.762-12.699-7.556-24.464-18.172-31.474l-75.411-49.791c2.332-61.49 34.371-117.005 86.512-149.898l80.85 40.425c5.689 2.845 11.931 4.268 18.172 4.268s12.482-1.422 18.172-4.268l80.851-40.425c52.141 32.893 84.18 88.404 86.512 149.898l-75.412 49.791c-10.616 7.009-17.41 18.776-18.172 31.475zm-253.684 104.447 32.977-19.003c5.211-3.008 8.224-8.608 7.863-14.614l-3.884-64.711c-.296-4.932-2.935-9.502-7.059-12.225l-54.102-35.722c-5.017-3.312-11.369-3.506-16.578-.504l-33.078 19.065c-1.346-6.246-2.454-12.579-3.303-18.994l45.462-26.247 75.048 49.551c6.697 4.422 10.983 11.844 11.464 19.855l5.388 89.769-45.352 26.184c-5.113-3.941-10.07-8.073-14.846-12.404zm-70.095-112.571 36.804-21.211c.259-.149.573-.14.822.025l54.102 35.722c.205.135.336.362.351.607l3.884 64.711c.018.298-.132.576-.385.722l-36.69 21.14c-27.319-28.17-47.848-62.961-58.888-101.716zm166.214-243.38 58.556 29.278c2.21 1.105 4.635 1.658 7.059 1.658s4.848-.552 7.058-1.658l58.554-29.277c5.03-2.514 8.154-7.568 8.154-13.191v-38.815c6.156 1.984 12.204 4.207 18.134 6.663v52.473l-80.438 40.218c-7.177 3.589-15.747 3.589-22.926 0l-80.437-40.218v-52.473c5.93-2.455 11.978-4.679 18.133-6.662v38.814c0 5.622 3.124 10.676 8.153 13.19zm306.614 177.433c0 5.178-.183 10.313-.507 15.411l-39.97-23.076c-1.258-33.123-10.698-65.539-27.457-94.008-16.253-27.61-39.08-51.095-66.166-68.182v-46.095c79.399 39.465 134.1 121.433 134.1 215.95zm-182.233-233.74v42.96l-58.418 29.209c-.22.108-.48.108-.699 0l-58.417-29.209v-42.96c18.818-4.733 38.502-7.26 58.767-7.26s39.949 2.527 58.767 7.26zm-165.667 17.79v46.095c-27.093 17.091-49.924 40.585-66.179 68.203-16.752 28.464-26.188 60.873-27.445 93.987l-39.97 23.077c-.323-5.098-.506-10.234-.506-15.412 0-94.517 54.701-176.485 134.1-215.95zm-26.625 416.477 39.863-23.015c28.705 15.163 60.985 23.179 93.662 23.179 32.675 0 64.957-8.016 93.661-23.179l39.863 23.015c-38.248 25.553-84.174 40.473-133.524 40.473s-95.276-14.92-133.525-40.473z"/><path d="m314.873 177.531c-4.183-7.249-11.982-11.751-20.353-11.751h-77.041c-8.369 0-16.167 4.502-20.352 11.75l-38.521 66.72c-4.185 7.248-4.185 16.252 0 23.5l38.521 66.72c4.185 7.248 11.983 11.75 20.352 11.75h77.041c8.37 0 16.169-4.502 20.352-11.75l38.521-66.72c4.185-7.248 4.185-16.253 0-23.5zm25.53 82.719-38.522 66.721c-1.513 2.621-4.333 4.249-7.361 4.249h-77.041c-3.027 0-5.848-1.628-7.361-4.25l-38.521-66.72c-1.513-2.622-1.513-5.878 0-8.5l38.521-66.72c1.514-2.622 4.334-4.25 7.361-4.25h77.041c3.028 0 5.848 1.628 7.361 4.25l38.521 66.721c1.515 2.621 1.515 5.877.001 8.499z"/></g></g></svg>