<svg height="512" viewBox="0 0 60 59" width="512" xmlns="http://www.w3.org/2000/svg"><g id="Page-1" fill="none" fill-rule="evenodd"><g id="028---Swimming" fill-rule="nonzero"><path id="Shape" d="m59 48v10c-9.67 0-9.67-4-19.33-4s-9.67 4-19.34 4-9.66-4-19.33-4v-10c8.68 0 9.57 3.22 16.64 3.88.81.08 1.7.12 2.69.12 9.67 0 9.67-4 19.34-4 3.2825548-.0829651 6.5411106.5803716 9.53 1.94 3.0639287 1.4337229 6.4181348 2.1387907 9.8 2.06z" fill="#02a9f4"/><path id="Shape" d="m56 48v9.846c.9965413.1047555 1.9979702.1561622 3 .1540655v-10.0000655z" fill="#0377bc"/><path id="Shape" d="m51.35 33.17c-1.195541 2.765204-3.843142 4.6243223-6.85 4.81-.16.01-.33.02-.5.02-3.981808.0001037-7.3575696-2.9281137-7.92-6.87-.0518657-.3744581-.0785922-.7519697-.08-1.13-.0052818-1.3939579.3605763-2.7642002 1.06-3.97z" fill="#ffe0b2"/><path id="Shape" d="m52 30c.0019292 1.0899519-.219278 2.1687621-.65 3.17l-14.29-7.14c1.8024497-3.1433722 5.4925924-4.6827643 8.9945418-3.7521927 3.5019495.9305716 5.9411609 4.0987144 5.9454582 7.7221927z" fill="#ef314c"/><path id="Shape" d="m44 22c-.4919523.0049179-.9823874.0554678-1.465.151 2.1449137.4131639 4.0263855 1.6882434 5.2049099 3.5273843 1.1785245 1.8391408 1.5508817 4.0812635 1.0300901 6.2026157l2.58 1.289c1.0623981-2.4732606.8113149-5.3147917-.6683195-7.5634334s-3.9898969-3.6036046-6.6816805-3.6065666z" fill="#bb193b"/><path id="Shape" d="m49.2 45.94c-2.9888894-1.3596284-6.2474452-2.0229651-9.53-1.94-9.67 0-9.67 4-19.34 4-.99 0-1.88-.04-2.69-.12l10.22-10.21c1.3401437-1.3428418 1.3401437-3.5171582 0-4.86l-.01-.01c-.4329035-.433601-.975618-.7412545-1.57-.89l-11.68-3.03c-1.8024778-.5495385-2.8463255-2.4274956-2.3614597-4.248436s2.3243763-2.9311394 4.1614597-2.511564l10.99 2.85c2.2405729.5812668 4.2846705 1.7517889 5.92 3.39l2.77 2.77c.5624304 3.9418863 3.938192 6.8701037 7.92 6.87.17 0 .34-.01.5-.02z" fill="#ffe0b2"/><path id="Shape" d="m24.39 24.97c2.2405729.5812668 4.2846705 1.7517889 5.92 3.39l2.77 2.77c.5624304 3.9418863 3.938192 6.8701037 7.92 6.87.17 0 .34-.01.5-.02l3.927 6.651c1.289723.3377849 2.5511991.7754398 3.773 1.309l-4.7-7.96c-.16.01-.33.02-.5.02-3.981808.0001037-7.3575696-2.9281137-7.92-6.87l-2.77-2.77c-1.6353295-1.6382111-3.6794271-2.8087332-5.92-3.39l-10.99-2.85c-.7616763-.2012809-1.5692558-.136364-2.289.184z" fill="#dfc49c"/><circle id="Oval" cx="4.5" cy="26.5" fill="#00bcd4" r="2.5"/><circle id="Oval" cx="30" cy="7" fill="#ffdc00" r="6"/><path id="Shape" d="m34.243 2.757c-1.5045767-1.49754679-3.6906656-2.08451336-5.743-1.542 2.6546094.6635738 4.5169212 3.04871034 4.5169212 5.785s-1.8623118 5.1214262-4.5169212 5.785c2.6170709.6894598 5.3710816-.4637351 6.716059-2.81223471 1.3449774-2.34849963.9459614-5.30742166-.973059-7.21576529z" fill="#fec108"/><g fill="#000"><path id="Shape" d="m59 47c-3.1345245.0830887-6.2467317-.5496127-9.1-1.85l-3.79-6.41c2.7109587-.6590036 4.9647359-2.5347516 6.105-5.081.008-.015.021-.026.029-.042s.005-.029.011-.042c1.9111307-4.389569.048208-9.5068711-4.2376414-11.6404671s-9.4919055-.535397-11.8423586 3.6354671l-.01.013v.007c-.5485233.9728792-.9097647 2.039983-1.065 3.146l-1.08-1.081c-1.7641664-1.7650802-3.9677807-3.0269022-6.383-3.655l-10.979-2.846c-1.1521333-.3074737-2.3792441-.1442254-3.4109184.4537706-1.0316744.597996-1.7832416 1.5816613-2.0890816 2.7342294-.3066583 1.1545205-.1416895 2.3835958.4585543 3.4163902.6002437 1.0327944 1.586502 1.7845492 2.7414457 2.0896098l11.68 3.032c.4227989.1066884.8083722.3269666 1.115.637.9507491.9515429.9507491 2.4934571 0 3.445l-9.886 9.877c-2.1515429-.261698-4.2492861-.8564746-6.218-1.763-3.14789357-1.448146-6.58495556-2.1582008-10.049-2.076-.55228475 0-1 .4477153-1 1s.44771525 1 1 1c3.20118222-.0817909 6.37802377.5766432 9.283 1.924 3.1478936 1.448146 6.5849556 2.1582008 10.049 2.076 3.4643644.082177 6.9017461-.6278731 10.05-2.076 2.9052807-1.3475078 6.0824819-2.0059455 9.284-1.924 3.2015181-.0819455 6.3787193.5764922 9.284 1.924 3.1482539 1.4481269 6.5856356 2.158177 10.05 2.076.5522847 0 1-.4477153 1-1s-.4477153-1-1-1zm-15-10c-2.3285855.0030616-4.5058435-1.1534839-5.8069877-3.0846348-1.3011443-1.9311508-1.5553565-4.3833796-.6780123-6.5403652l12.472 6.232c-1.2635903 2.1016002-3.5347835 3.3887487-5.987 3.393zm0-14c2.1695527-.008447 4.2194254.9934342 5.5456516 2.7104532 1.3262262 1.7170191 1.7776806 3.9535192 1.2213484 6.0505468l-12.238-6.115c1.3242184-1.6708084 3.3390632-2.6452699 5.471-2.646zm-14.384 22.076c-2.9052807 1.3475078-6.0824819 2.0059455-9.284 1.924-.137 0-.253-.008-.386-.01l8.621-8.613c1.7322215-1.7381621 1.7277447-4.5513598-.01-6.284-.5588671-.5597601-1.2590349-.9575356-2.026-1.151l-11.673-3.028c-.8958235-.2002139-1.60988-.8752532-1.8600627-1.7584259-.2501826-.8831726.0037503-1.8324213.6614757-2.4727201.6577255-.6402987 1.6134491-.8686563 2.489587-.594854l10.986 2.851c2.0692749.5375197 3.9573735 1.61811 5.469 3.13l2.549 2.548c.7795901 4.2493001 4.4659288 7.3469827 8.786 7.383l2.961 5.01c-2.3418784-.7210265-4.7841903-1.0620183-7.234-1.01-3.4643644-.082177-6.9017461.6278731-10.05 2.076z"/><path id="Shape" d="m59 52c-3.2015181.0819455-6.3787193-.5764922-9.284-1.924-3.1482539-1.4481269-6.5856356-2.158177-10.05-2.076-3.4643644-.082177-6.9017461.6278731-10.05 2.076-2.9052807 1.3475078-6.0824819 2.0059455-9.284 1.924-3.2011822.0817909-6.3780238-.5766432-9.283-1.924-3.14789357-1.448146-6.58495556-2.1582008-10.049-2.076-.55228475 0-1 .4477153-1 1s.44771525 1 1 1c3.20118222-.0817909 6.37802377.5766432 9.283 1.924 3.1478936 1.448146 6.5849556 2.1582008 10.049 2.076 3.4643644.082177 6.9017461-.6278731 10.05-2.076 2.9052807-1.3475078 6.0824819-2.0059455 9.284-1.924 3.2015181-.0819455 6.3787193.5764922 9.284 1.924 3.1482539 1.4481269 6.5856356 2.158177 10.05 2.076.5522847 0 1-.4477153 1-1s-.4477153-1-1-1z"/><path id="Shape" d="m59 57c-3.2015181.0819455-6.3787193-.5764922-9.284-1.924-3.1482539-1.4481269-6.5856356-2.158177-10.05-2.076-3.4643644-.082177-6.9017461.6278731-10.05 2.076-2.9052807 1.3475078-6.0824819 2.0059455-9.284 1.924-3.2011822.0817909-6.3780238-.5766432-9.283-1.924-3.14789357-1.448146-6.58495556-2.1582008-10.049-2.076-.55228475 0-1 .4477153-1 1s.44771525 1 1 1c3.20118222-.0817909 6.37802377.5766432 9.283 1.924 3.1478936 1.448146 6.5849556 2.1582008 10.049 2.076 3.4643644.082177 6.9017461-.6278731 10.05-2.076 2.9052807-1.3475078 6.0824819-2.0059455 9.284-1.924 3.2015181-.0819455 6.3787193.5764922 9.284 1.924 3.1482539 1.4481269 6.5856356 2.158177 10.05 2.076.5522847 0 1-.4477153 1-1s-.4477153-1-1-1z"/><path id="Shape" d="m4.5 30c1.41561786 0 2.69184486-.8527476 3.23357836-2.160608s.24228836-2.8132727-.75870463-3.8142657c-1.00099298-1.000993-2.50640538-1.3004382-3.81426574-.7587047-1.30786037.5417335-2.16060799 1.8179605-2.16060799 3.2335784 0 1.9329966 1.56700338 3.5 3.5 3.5zm0-5c.82842712 0 1.5.6715729 1.5 1.5s-.67157288 1.5-1.5 1.5-1.5-.6715729-1.5-1.5.67157288-1.5 1.5-1.5z"/><circle id="Oval" cx="3" cy="39" r="1"/><circle id="Oval" cx="6" cy="35" r="1"/><path id="Shape" d="m34.949 2.05c-2.7338095-2.73380951-7.1661905-2.73380951-9.9 0s-2.7338095 7.16619049 0 9.9c2.7338095 2.7338095 7.1661905 2.7338095 9.9 0 2.7338095-2.73380951 2.7338095-7.16619049 0-9.9zm-1.414 8.486c-1.6869213 1.686412-4.3301804 1.9463931-6.313336.6209563-1.9831556-1.32543681-2.7539029-3.86716015-1.8409042-6.07082124s3.2554752-3.45554482 5.5949268-2.99008245c2.3394515.46546236 4.0243457 2.51864052 4.0243134 4.90394739.0036368 1.32704515-.5239118 2.60036384-1.465 3.536z"/><path id="Shape" d="m32.707 38.293c-.3923789-.3789722-1.0160848-.3735524-1.4018186.0121814s-.3911536 1.0094397-.0121814 1.4018186l1 1c.3923789.3789722 1.0160848.3735524 1.4018186-.0121814s.3911536-1.0094397.0121814-1.4018186z"/><path id="Shape" d="m33.444 15.315c-.5098572.2114267-.7519975.7959651-.541 1.306l.765 1.848c.2112489.5103111.7961889.7527489 1.3065.5415s.7527489-.7961889.5415-1.3065l-.765-1.848c-.1015282-.2451011-.2962909-.4398132-.5414184-.5412776s-.5205277-.1013645-.7655816.0002776z"/><path id="Shape" d="m20.378 9.9-1.848.765c-.5103111.2115251-.7525251.7966889-.541 1.307s.7966889.7525251 1.307.541l1.848-.766c.3376241-.1316192.5776264-.43559.6273323-.7945371.0497059-.358947-.0986631-.7166983-.3878157-.9351117-.2891527-.21841336-.6738391-.26330913-1.0055166-.1173512z"/><path id="Shape" d="m42.011 2.025c-.1014967-.24609592-.2969277-.44156613-.5430033-.54311219-.2460755-.10154605-.5224834-.10078586-.7679967.00211219l-1.848.766c-.3304707.13754725-.5624576.44095016-.6085735.79591978s.1006453.70757763.385.925c.2843548.21742237.6631028.26662747.9935735.12908022l1.848-.765c.2458468-.10150504.441127-.29676893.5426526-.54260722.1015256-.2458383.1009309-.52199403-.0016526-.76739278z"/><path id="Shape" d="m25.249 15.856-.765 1.844c-.1366541.3301134-.0868143.7080549.1307453.9914575.2175595.2834026.5697863.4292108.924.3825.3542136-.0467108.6566006-.2788441.7932547-.6089575l.765-1.848c.2112489-.5103111-.0311889-1.0952511-.5415-1.3065s-1.0952511.0311889-1.3065.5415z"/><path id="Shape" d="m21.144 2.25-1.844-.766c-.5103111-.21152505-1.0954749.03068891-1.307.54100001-.211525.5103111.0306889 1.09547492.541 1.30699999l1.848.765c.3316775.14595793.7163639.10106216 1.0055166-.11735124.2891526-.2184134.4375216-.57616465.3878157-.9351117s-.2897082-.66291783-.6273323-.79453706z"/><path id="Shape" d="m41.47 10.668-1.848-.768c-.3316775-.14595793-.7163639-.10106216-1.0055166.1173512-.2891526.2184134-.4375216.5761647-.3878157.9351117.0497059.3589471.2897082.6629179.6273323.7945371l1.848.766c.3301134.1368327.7081502.087158.9917075-.1303123.2835573-.2174702.4295561-.569697.383-.924-.0465561-.3543029-.2785941-.656855-.6087075-.7936877z"/></g></g></g></svg>